<?xml version="1.0" standalone="no"?><!DOCTYPE svg PUBLIC "-//W3C//DTD SVG 1.1//EN" "http://www.w3.org/Graphics/SVG/1.1/DTD/svg11.dtd"><svg t="1642599398771" class="icon" viewBox="0 0 1024 1024" version="1.1" xmlns="http://www.w3.org/2000/svg" p-id="6313" xmlns:xlink="http://www.w3.org/1999/xlink" width="128" height="128"><defs><style type="text/css"></style></defs><path d="M246.033067 279.552c11.8784 4.3008 18.432 12.970667 18.158933 24.9856-0.341333 13.653333-4.778667 25.258667-15.9744 35.089067-37.0688 32.494933-73.728 65.399467-109.9776 98.781866-17.066667 15.701333-33.109333 32.494933-46.2848 51.336534-3.413333 4.846933-6.075733 10.24-8.192 15.701333-2.116267 5.666133 1.365333 9.693867 7.7824 10.103467 10.6496 0.546133 20.2752-3.140267 30.037333-6.212267 10.922667-3.413333 21.845333-6.417067 33.450667-6.3488 15.36 0.136533 21.026133 4.573867 23.005867 18.978133a44.373333 44.373333 0 0 1-9.898667 33.5872c-7.918933 10.376533-16.930133 20.0704-25.941333 29.764267-6.212267 6.826667-13.243733 12.970667-19.6608 19.797333a47.377067 47.377067 0 0 0-7.304534 10.0352c-3.072 5.870933-1.8432 10.103467 4.5056 12.6976 5.461333 2.2528 11.400533 3.2768 17.271467 4.573867 4.778667 1.024 9.762133 1.365333 14.5408 2.525867 12.424533 3.208533 17.749333 11.0592 15.5648 23.210666a69.358933 69.358933 0 0 1-11.946667 26.897067c-10.786133 15.906133-22.3232 31.3344-33.109333 47.172267-4.846933 7.099733-8.874667 14.7456-12.834133 22.3232-1.774933 3.2768-1.979733 6.9632 1.2288 9.762133 3.413333 2.935467 7.236267 2.184533 10.8544 0.477867 8.874667-4.3008 15.223467-11.332267 21.640533-18.295467 3.2768-3.618133 6.280533-7.509333 9.4208-11.195733l1.092267 0.546133c-2.048 4.778667-4.096 9.557333-6.3488 14.336-8.874667 18.568533-19.182933 36.4544-34.816 50.926933a69.973333 69.973333 0 0 1-26.4192 15.837867c-19.592533 6.280533-27.989333-8.738133-27.0336-21.367467 0.955733-13.1072 6.826667-24.712533 13.653333-35.6352 12.6976-19.933867 26.4192-39.3216 38.980267-59.323733 6.212267-9.8304 11.400533-20.411733 16.110933-30.993067a27.579733 27.579733 0 0 0 1.160533-13.789866c-0.682667-5.666133-3.549867-7.168-9.489066-7.031467a120.149333 120.149333 0 0 1-36.727467-3.208533 35.362133 35.362133 0 0 1-7.9872-3.413334c-5.802667-3.413333-7.714133-7.9872-6.007467-14.267733 3.618133-13.5168 10.990933-25.531733 18.8416-37.0688 13.243733-19.387733 27.170133-38.434133 40.7552-57.685333 1.092267-1.501867 1.501867-3.4816 2.2528-5.3248-2.048-0.341333-4.3008-1.365333-6.144-0.887467a575.488 575.488 0 0 0-26.350933 6.826667c-18.0224 5.051733-35.84 10.922667-54.0672 15.1552-8.8064 2.048-18.432 2.048-27.511467 1.365333-10.376533-0.8192-15.5648-7.3728-15.701333-17.408a67.652267 67.652267 0 0 1 12.4928-38.5024c15.018667-23.278933 32.768-44.8512 51.541333-65.399467 38.0928-41.3696 76.868267-82.193067 115.370667-123.221333 2.730667-2.8672 4.846933-5.802667 4.983467-9.966933 0.068267-4.778667 0.682667-9.693867 1.501866-14.404267 0.341333-1.6384 1.979733-4.232533 3.2768-4.369067 18.909867-2.389333 37.819733-4.232533 56.251734 2.525867z m495.752533 204.526933a9.557333 9.557333 0 0 1-2.184533 7.099734c-11.264 12.6976-22.7328 25.1904-34.338134 37.546666-2.730667 3.003733-2.935467 5.051733 0 8.192 13.653333 14.7456 14.336 21.162667 4.369067 38.229334l-4.437333 7.168c-2.935467 4.778667-1.570133 8.465067 3.959466 10.24 2.048 0.546133 4.3008 0.887467 6.417067 0.8192 4.096-0.2048 8.328533-0.4096 12.424533-1.2288 10.376533-2.048 16.930133 2.594133 17.271467 12.561066v2.6624a80.0768 80.0768 0 0 1-8.6016 30.378667c-14.7456 32.5632-32.085333 63.6928-56.32 90.9312-5.256533 5.9392-11.264 11.332267-17.134933 16.657067-8.260267 7.509333-18.2272 8.465067-28.808534 5.597866a13.653333 13.653333 0 0 1-5.12-2.8672c-4.096-3.549867-3.6864-5.597867 1.092267-8.123733 13.994667-7.304533 23.620267-18.705067 32.290133-30.9248 15.5648-21.845333 26.965333-45.738667 38.5024-69.563733 3.140267-6.3488 5.7344-13.038933 9.557334-18.978134 4.096-6.417067-3.345067-15.1552-9.489067-14.199466a30.037333 30.037333 0 0 0-11.332267 3.345066c-14.336 9.147733-28.398933 18.568533-42.257066 28.330667-11.741867 8.328533-17.749333 20.48-24.3712 32.631467-7.236267 13.175467-14.336 27.0336-24.576 38.0928-20.206933 22.050133-37.410133 46.6944-60.962134 65.9456-4.573867 3.754667-10.24 6.280533-15.701333 8.874666a13.380267 13.380267 0 0 1-7.304533 0.546134c-5.256533-0.750933-7.304533-4.983467-3.413334-9.147734 11.537067-12.4928 22.664533-25.3952 33.450667-38.570666 3.6864-4.437333 5.5296-10.103467 8.465067-15.018667a40.004267 40.004267 0 0 1 5.051733-6.7584c9.8304-10.717867 20.206933-21.026133 29.4912-32.1536 5.12-6.144 9.147733-13.175467 12.424533-20.343467a135.168 135.168 0 0 1 22.801067-36.386133c10.4448-11.4688 18.8416-24.576 28.194133-37.0688l15.7696-21.162667c1.024-1.297067 2.048-2.525867 2.8672-3.959466 2.321067-3.959467 1.297067-10.24-2.048-12.4928-3.208533-2.321067-9.0112-1.4336-12.561066 2.048a90.794667 90.794667 0 0 1-28.8768 20.957866 59.1872 59.1872 0 0 1-34.269867 4.778667c-8.055467-1.6384-13.858133-6.826667-19.319467-12.288-2.730667-2.730667 0.136533-3.822933 2.048-4.9152 11.400533-6.144 23.1424-11.810133 34.269867-18.295467 10.171733-5.870933 19.729067-12.629333 29.627733-18.773333 3.618133-2.2528 7.645867-3.822933 11.400534-5.802667 22.1184-11.605333 44.2368-23.3472 66.218666-35.089066 2.525867-1.365333 4.778667-3.2768 6.9632-5.12 5.597867-4.778667 17.2032-1.501867 18.432 5.597866z m164.864-39.048533c5.461333-0.341333 11.332267 3.413333 13.5168 8.328533 2.4576 5.597867 1.365333 10.990933-0.546133 16.384a28.4672 28.4672 0 0 1-3.003734 6.3488 13.380267 13.380267 0 0 0-2.048 12.288c0.887467 3.208533-0.8192 7.850667-2.935466 10.922667a204.117333 204.117333 0 0 0-26.8288 66.1504c-4.164267 17.544533-5.461333 35.362133-4.573867 53.248 0.273067 5.802667 1.092267 6.621867 6.9632 5.7344 15.701333-2.389333 31.402667-5.12 46.967467-7.918933 8.533333-1.501867 16.9984-3.140267 25.258666-5.3248a31.197867 31.197867 0 0 0 11.741867-5.597867c14.404267-11.946667 30.583467-9.762133 42.8032-2.4576 11.537067 6.894933 11.8784 17.271467 1.160533 25.122133-9.147733 6.7584-20.138667 9.352533-31.1296 11.6736-31.607467 6.690133-63.2832 13.312-94.958933 19.797334-4.778667 0.955733-7.031467 2.935467-7.236267 7.850666a53.248 53.248 0 0 1-2.730666 14.199467c-1.979733 6.144-6.9632 9.0112-13.312 6.826667a34.269867 34.269867 0 0 1-13.585067-7.850667c-8.669867-9.216-19.319467-10.24-30.9248-8.3968-13.653333 2.321067-26.282667 7.441067-38.5024 13.585067a10.786133 10.786133 0 0 0-3.2768 2.321066c-7.714133 8.942933-15.36 18.0224-23.005867 27.0336l-0.546133 0.682667c-2.048 3.345067-4.573867 6.7584-2.4576 10.6496 2.2528 4.096 6.7584 3.8912 10.717867 3.4816 6.280533-0.546133 12.4928-1.570133 18.773333-2.4576l3.8912-0.8192 1.365333 1.365333-15.086933 21.162667c-2.6624 3.4816-5.3248 6.826667-8.192 10.103467-7.099733 8.055467-17.476267 6.007467-22.7328-3.2768-6.485333-11.264-4.5056-22.391467 1.365333-33.1776 6.417067-11.946667 16.1792-21.367467 26.487467-30.3104l3.2768-3.072c0.341333-0.273067 0.341333-0.682667 0.8192-2.048l-5.051733 0.955733c-10.6496 1.501867-21.230933 3.345067-31.9488 4.232533a22.3232 22.3232 0 0 1-11.264-3.072c-2.116267-1.092267-3.140267-4.096-4.232534-6.621866 15.223467 2.730667 28.8768-1.160533 42.325334-6.144 6.212267-2.321067 11.810133-5.7344 14.336-12.219734 2.2528-5.802667 1.092267-9.6256-3.8912-13.5168-6.690133-5.12-8.533333-12.4928-9.352534-19.933866-0.546133-5.256533 0.341333-10.717867 1.092267-16.042667 0.273067-1.6384 1.911467-3.345067 3.2768-4.642133a23.005867 23.005867 0 0 0 5.256533-24.029867c-0.341333-0.8192-0.682667-1.8432-1.365333-2.2528-9.147733-4.778667-9.079467-13.653333-9.8304-21.504-1.092267-11.810133 4.573867-21.230933 13.789867-28.945067 2.048-1.774933 3.4816-1.501867 5.393066 0.477867 4.983467 5.461333 10.513067 4.846933 14.677334-1.2288l4.983466-7.5776c2.389333 1.774933 4.5056 3.072 6.3488 4.778667 2.321067 2.048 4.5056 2.116267 6.9632 0.273066 18.0224-13.789867 36.317867-27.306667 53.930667-41.5744 8.669867-7.099733 16.042667-15.7696 23.688533-23.9616 1.706667-1.8432 2.321067-4.642133 3.2768-7.031466l1.024-3.822934c1.8432-6.144 4.573867-8.874667 9.079467-9.147733z m-2.2528 252.381867c4.027733 0.341333 6.9632 0.4096 9.8304 0.8192 23.825067 3.8912 42.871467 14.5408 54.613333 35.157333 2.048 3.6864 3.413333 7.918933 4.096 12.014933 1.979733 10.24-4.642133 17.6128-15.496533 18.0224a57.1392 57.1392 0 0 1-29.218133-7.236266 66.833067 66.833067 0 0 0-46.8992-6.7584c-0.955733 0.2048-1.979733 0-4.369067 0l4.778667-3.549867 23.483733-17.066667c9.693867-7.031467 11.0592-13.5168 4.778667-23.483733-1.501867-2.321067-3.208533-4.573867-5.597867-7.918933zM405.9136 465.1008c4.778667 0.682667 9.6256 2.389333 13.858133 4.642133a18.432 18.432 0 0 1 10.786134 18.090667 11.195733 11.195733 0 0 1-2.2528 6.3488c-32.5632 37.956267-65.262933 75.776-97.962667 113.664-2.048 2.321067-4.642133 4.3008-6.621867 6.7584-2.048 2.4576-2.730667 5.188267-0.4096 8.055467 2.389333 2.8672 5.12 2.321067 8.260267 1.160533 19.182933-7.236267 39.1168-9.557333 59.528533-7.168 14.062933 1.6384 23.415467 18.568533 16.861867 30.3104a9.557333 9.557333 0 0 1-4.369067 3.6864 453.632 453.632 0 0 1-95.095466 30.037333c-16.7936 3.2768-33.792 5.3248-50.653867 7.9872a12.629333 12.629333 0 0 1-10.24-2.8672c-7.714133-5.9392-14.472533-12.424533-16.861867-21.981866-2.6624-10.6496 0.8192-19.729067 8.738134-27.306667 18.295467-17.2032 37.137067-33.928533 54.954666-51.6096 15.496533-15.496533 29.9008-31.9488 44.782934-47.991467a27.2384 27.2384 0 0 0 3.6864-5.597866c2.525867-4.778667 0.887467-7.714133-4.642134-7.3728a52.292267 52.292267 0 0 0-14.882133 2.730666c-15.837867 6.075733-31.744 12.151467-47.104 19.2512a20.8896 20.8896 0 0 1-21.7088-1.365333c-3.618133-2.2528-6.826667-5.12-11.0592-8.3968l11.195733-5.188267c34.679467-15.36 69.290667-30.72 103.970134-46.216533a22.664533 22.664533 0 0 0 5.256533-3.413333c2.4576-2.048 5.051733-4.096 6.826667-6.621867 8.874667-12.629333 22.050133-11.400533 35.157333-9.557333z m409.463467 99.9424a13.7216 13.7216 0 0 0-11.741867 14.199467l0.887467 12.288 2.6624 49.5616c0.068267 1.4336 1.706667 4.164267 2.048 4.096 6.144-1.4336 13.585067-1.706667 18.158933-5.256534 8.123733-6.3488 9.4208-13.789867 4.983467-21.640533L829.713067 614.4c-7.509333-9.557333-6.3488-15.496533 1.911466-21.981867 2.389333-1.8432 3.754667-4.778667 5.461334-7.031466-0.8192-2.048-1.092267-3.754667-2.048-4.7104a562.517333 562.517333 0 0 0-16.5888-15.018667c-0.682667-0.6144-2.048-0.682667-3.072-0.6144z m45.533866-34.338133c-2.048 0.8192-4.096 1.570133-5.802666 2.730666-9.352533 6.417067-18.705067 12.9024-27.921067 19.524267-3.959467 2.8672-3.6864 4.096 0.750933 6.144 6.621867 2.8672 13.380267 5.461333 19.797334 8.533333 9.352533 4.437333 10.513067 9.762133 4.096 17.544534-3.413333 4.164267-7.509333 7.7824-10.922667 11.946666-5.9392 7.031467-5.870933 15.906133 0.682667 22.391467a16.247467 16.247467 0 0 0 9.762133 4.437333c4.164267 0.136533 5.5296-4.096 6.690133-7.509333a21.9136 21.9136 0 0 0 1.2288-4.642133c0.682667-7.168 1.6384-14.336 1.979734-21.435734 0.4096-9.8304 1.570133-19.387733 6.007466-28.603733 3.413333-7.031467 5.12-14.9504 6.621867-19.524267 0.273067-11.8784-4.5056-14.9504-12.970667-11.537066z m106.2912-159.5392c7.850667 1.979733 15.018667 10.376533 15.086934 18.158933 0 5.461333-3.549867 8.738133-8.533334 10.308267-5.461333 1.774933-11.264 2.798933-16.9984 4.096a228.693333 228.693333 0 0 0-91.7504 46.011733c-25.941333 21.026133-50.858667 43.144533-76.253866 64.785067l-4.5056 3.618133-0.887467-0.682667 21.7088-26.760533c10.922667-13.312 21.572267-26.760533 32.631467-39.936 2.730667-3.345067 3.822933-6.144 1.024-9.762133-1.2288-1.706667-1.501867-3.2768 0.750933-4.846934l39.936-28.535466c19.0464-13.312 38.638933-25.941333 61.0304-33.655467 8.6016-2.935467 17.408-5.188267 26.760533-2.798933z m-91.682133-90.112c8.533333 5.188267 16.5888 11.0592 24.9856 16.5888 3.549867 2.389333 3.2768 4.5056 0.477867 7.509333-17.408 18.295467-32.221867 38.5024-44.919467 60.074667-11.4688 19.456-21.162667 39.594667-29.4912 60.552533a74.274133 74.274133 0 0 1-12.9024 20.138667 660.8896 660.8896 0 0 1-30.993067 33.245866c-2.2528 2.321067-6.144 3.2768-9.6256 5.051734-2.730667-1.570133-5.597867-2.321067-6.826666-4.096-0.682667-1.092267 0.8192-4.027733 2.048-5.597867 5.7344-7.236267 11.4688-14.609067 17.749333-21.435733 11.605333-12.561067 17.066667-28.0576 23.005867-43.281067 7.031467-17.749333 13.243733-35.908267 19.8656-53.930667l7.304533-17.749333c1.092267-2.935467 2.048-5.9392 2.730667-9.0112 3.003733-12.834133 4.437333-25.941333 6.075733-39.048533 0.341333-3.208533 1.024-5.597867 4.232533-7.031467a10.103467 10.103467 0 0 0 2.730667-1.6384c7.7824-7.031467 15.837867-5.12 23.552-0.341333z m-176.059733 72.0896a14.677333 14.677333 0 0 1 7.099733 1.160533c19.114667 9.489067 35.0208 22.254933 45.329067 40.686933 8.669867 15.633067-2.2528 33.860267-20.616534 34.2016h-6.007466c-5.597867-0.2048-9.352533-1.706667-12.765867-7.168a89.838933 89.838933 0 0 0-18.090667-18.978133c-5.3248-4.642133-11.946667-7.850667-17.749333-12.014933-6.075733-4.437333-5.188267-12.4928-9.693867-17.954134-4.096-4.846933-7.5776-10.24-11.8784-16.110933l15.36-1.501867c9.693867-0.887467 19.319467-1.706667 29.013334-2.321066z" fill="#d81e06" p-id="6314"></path></svg>